<?xml version="1.0" encoding="UTF-8"?>
<svg version="1.1" xmlns="http://www.w3.org/2000/svg" width="412" height="362">
<path d="M0 0 C135.96 0 271.92 0 412 0 C412 119.46 412 238.92 412 362 C276.04 362 140.08 362 0 362 C0 242.54 0 123.08 0 0 Z " fill="#FEFEFE" transform="translate(0,0)"/>
<path d="M0 0 C0.66 0 1.32 0 2 0 C3.15625 1.50390625 3.15625 1.50390625 4.5 3.5625 C12.71308078 14.81819908 26.61940547 20.1426845 39.90625 22.4921875 C57.84577657 24.96149004 72.66751179 21.88596089 88 12 C89.4493523 11.09058294 90.8999219 10.18310368 92.3515625 9.27734375 C93.04330566 8.84542725 93.73504883 8.41351074 94.44775391 7.96850586 C94.95999512 7.64889893 95.47223633 7.32929199 96 7 C96.48073975 7.78141357 96.48073975 7.78141357 96.97119141 8.57861328 C104.51642289 20.8319411 112.15883286 33.01804046 119.90625 45.14453125 C120.42574219 45.96518066 120.94523437 46.78583008 121.48046875 47.63134766 C122.48183343 49.19227955 123.50496956 50.73948785 124.55078125 52.27099609 C125.01871094 52.96918457 125.48664063 53.66737305 125.96875 54.38671875 C126.38576172 54.99088623 126.80277344 55.59505371 127.23242188 56.2175293 C128.23987823 58.55704548 127.87353783 59.6453875 127 62 C125.93876916 63.89963105 124.82887028 65.77241183 123.6875 67.625 C117.06034738 78.80577896 112.78543822 90.96597124 112 104 C111.85111328 105.34191406 111.85111328 105.34191406 111.69921875 106.7109375 C110.7445201 121.27477177 117.75136819 135.42011315 123.58203125 148.44140625 C126.36414739 155.42352142 128.14114845 162.72752104 130 170 C130.27263672 170.97211426 130.27263672 170.97211426 130.55078125 171.96386719 C134.0418952 187.78772065 130.30293454 204.45761403 122 218 C109.18160642 236.28197117 90.79119797 246.71034409 69.1875 251.3125 C44.8820879 256.84467762 22.50609617 264.65584603 5 283 C12.81322389 283.44505706 20.32582263 282.72180466 28.0625 281.6875 C28.9714502 281.56979248 29.88040039 281.45208496 30.81689453 281.33081055 C41.8580199 279.78084836 51.60760577 276.60684778 61.6875 271.875 C62.73333252 271.38781494 63.77916504 270.90062988 64.85668945 270.39868164 C106.18805611 250.9170277 137.22134219 218.1684748 155 176 C155.33 176 155.66 176 156 176 C155.39689821 185.5076631 154.28714653 194.88405055 152.9375 204.3125 C152.74897828 205.65033844 152.56082548 206.98822893 152.37304688 208.32617188 C151.91896625 211.5513086 151.46122971 214.7758793 151 218 C152.11036621 217.5153125 153.22073242 217.030625 154.36474609 216.53125 C158.47431823 214.73851503 162.58595526 212.95056026 166.69824219 211.1640625 C168.47973663 210.38933015 170.26066401 209.61329249 172.04101562 208.8359375 C174.59618489 207.72054067 177.15333885 206.60981283 179.7109375 205.5 C180.50994476 205.15001953 181.30895203 204.80003906 182.13217163 204.43945312 C187.77225659 202 187.77225659 202 190 202 C183.83503813 222.78188758 169.13130964 241.00592682 155 257 C154.25234375 257.87011719 153.5046875 258.74023438 152.734375 259.63671875 C130.89038515 284.66301647 100.28423642 305.09991342 69 316 C68.34161133 316.24411621 67.68322266 316.48823242 67.00488281 316.73974609 C46.84870819 324.1818087 24.45502415 327.68355422 3 328 C1.43618984 328.05053185 -0.12761185 328.10132634 -1.69140625 328.15234375 C-22.20463458 328.65646869 -41.45214053 325.00199899 -61 319 C-61.88574707 318.73171387 -62.77149414 318.46342773 -63.68408203 318.18701172 C-88.67939989 310.53033415 -110.74739048 299.55516572 -131 283 C-131.5377002 282.56526367 -132.07540039 282.13052734 -132.62939453 281.68261719 C-149.33880167 268.09236508 -163.85296898 253.50124296 -175 235 C-175.79175112 233.72190115 -176.58467084 232.44452529 -177.37890625 231.16796875 C-179.65049156 227.48181638 -181.83747712 223.75096464 -184 220 C-184.45246094 219.21931152 -184.90492188 218.43862305 -185.37109375 217.63427734 C-186.80012836 215.15815538 -188.21495484 212.67447766 -189.625 210.1875 C-190.07568848 209.40375 -190.52637695 208.62 -190.99072266 207.8125 C-191.3985498 207.08417969 -191.80637695 206.35585937 -192.2265625 205.60546875 C-192.59346191 204.95731201 -192.96036133 204.30915527 -193.33837891 203.64135742 C-193.55671387 203.09970947 -193.77504883 202.55806152 -194 202 C-193.505 201.01 -193.505 201.01 -193 200 C-192.21463867 200.33733154 -191.42927734 200.67466309 -190.62011719 201.0222168 C-187.64572725 202.29942141 -184.67108743 203.57604192 -181.69628906 204.85229492 C-180.42015036 205.39992042 -179.14410535 205.9477643 -177.86816406 206.49584961 C-169.59947054 210.04748135 -161.3152727 213.55843315 -153 217 C-153.39832031 215.07414062 -153.39832031 215.07414062 -153.8046875 213.109375 C-156.29137905 200.76875689 -157.97595544 188.54454585 -159 176 C-156.71226221 178.89937382 -154.92621596 181.8431527 -153.21484375 185.11328125 C-152.68922852 186.10690674 -152.16361328 187.10053223 -151.62207031 188.12426758 C-151.06616211 189.17638428 -150.51025391 190.22850098 -149.9375 191.3125 C-127.52388868 233.14894935 -93.85484406 263.83991828 -48 278 C-33.70239168 282.22394805 -20.84986787 283.14417347 -6 283 C-20.49035476 266.62868573 -38.56006433 259.3992476 -59.22631836 253.72143555 C-109.94401641 239.75634496 -109.94401641 239.75634496 -123.50390625 218.65234375 C-132.38346444 202.91025495 -135.11236987 182.49103323 -130.4375 164.875 C-128.32694619 158.40909841 -125.60998687 152.22494394 -122.80859375 146.03515625 C-121.01158417 142.05861011 -119.32286945 138.04546833 -117.6875 134 C-116.98173828 132.2675 -116.98173828 132.2675 -116.26171875 130.5 C-113.84135282 123.78591989 -112.63353942 117.70434191 -112.6875 110.5625 C-112.69168945 109.78970703 -112.69587891 109.01691406 -112.70019531 108.22070312 C-112.9532587 94.96448903 -115.25883713 81.97166129 -122.0703125 70.4609375 C-122.43809814 69.83727295 -122.80588379 69.2136084 -123.18481445 68.57104492 C-123.92198017 67.33977549 -124.67520211 66.1179413 -125.44604492 64.9074707 C-128.06075061 60.62190132 -128.06075061 60.62190132 -127.76399231 57.58399963 C-126.94534311 54.8151377 -125.87672607 52.8627708 -124.2878418 50.45678711 C-123.43641853 49.15535011 -123.43641853 49.15535011 -122.5677948 47.82762146 C-121.9511647 46.90352982 -121.33453461 45.97943817 -120.69921875 45.02734375 C-120.06643509 44.06727921 -119.43365143 43.10721466 -118.7816925 42.11805725 C-117.44299252 40.09074818 -116.1003794 38.06601844 -114.75415039 36.04370117 C-112.69679965 32.95147749 -110.6531578 29.85053533 -108.61132812 26.74804688 C-107.30809609 24.77811342 -106.00408536 22.80869486 -104.69921875 20.83984375 C-104.08866135 19.91372787 -103.47810394 18.987612 -102.8490448 18.03343201 C-101.98343681 16.73672325 -101.98343681 16.73672325 -101.1003418 15.41381836 C-100.34541695 14.27728065 -100.34541695 14.27728065 -99.57524109 13.11778259 C-97.89209434 10.85492968 -96.03766569 8.9450547 -94 7 C-93.35998047 7.65355469 -93.35998047 7.65355469 -92.70703125 8.3203125 C-79.80628383 20.6092719 -62.93636916 23.53132612 -45.7578125 23.41967773 C-28.92346774 22.94544936 -14.4425521 16.3693331 -2.828125 4.13671875 C-0.96731788 2.13601784 -0.96731788 2.13601784 0 0 Z " fill="#333A8F" transform="translate(203,19)"/>
<path d="M0 0 C1.4540625 1.2065625 1.4540625 1.2065625 2.9375 2.4375 C19.94724486 15.14940897 39.88979151 21.50273207 61.16992188 18.71582031 C70.60668086 17.12310036 78.7704344 14.07292747 87.14453125 9.48828125 C89.54723541 8.23598264 91.40057791 7.58078496 94 7 C96.87586512 11.52473485 99.74085005 16.05594623 102.58984375 20.59765625 C104.79538709 24.10995398 107.03806055 27.59314224 109.31640625 31.05859375 C110.33631358 32.64298714 111.35585967 34.22761314 112.375 35.8125 C112.86911377 36.54581543 113.36322754 37.27913086 113.87231445 38.03466797 C117.12904791 43.16775032 117.12904791 43.16775032 116.5390625 46.97265625 C116.03117188 47.97167969 115.52328125 48.97070312 115 50 C114.37284532 51.38704861 113.74801914 52.77515142 113.125 54.1640625 C112.42013748 55.65269005 111.71173265 57.1396449 111 58.625 C110.64421875 59.37523437 110.2884375 60.12546875 109.921875 60.8984375 C108.31335904 64.28352332 106.67626944 67.64746112 105 71 C89.49 71 73.98 71 58 71 C58 63.74 58 56.48 58 49 C60.475 47.02 60.475 47.02 63 45 C53.43 44.67 43.86 44.34 34 44 C34 44.66 34 45.32 34 46 C34.639375 46.309375 35.27875 46.61875 35.9375 46.9375 C38 48 38 48 39 49 C39.11634803 51.56485583 39.16799708 54.10315554 39.17700195 56.66918945 C39.18357315 57.47245667 39.19014435 58.27572388 39.19691467 59.10333252 C39.21669645 61.77331627 39.22832128 64.44324364 39.23828125 67.11328125 C39.24235678 68.02307425 39.2464323 68.93286724 39.25063133 69.87022972 C39.27151329 74.68586375 39.28580555 79.50146911 39.29516602 84.31713867 C39.30623266 89.2975333 39.34062931 94.27748139 39.38033772 99.25771809 C39.40645575 103.08126163 39.41485358 106.90469807 39.41844749 110.72832298 C39.42332625 112.5643738 39.43497672 114.40041943 39.45348549 116.23638344 C39.47777428 118.80549307 39.47693098 121.37343821 39.4699707 123.94262695 C39.48918579 125.08286568 39.48918579 125.08286568 39.50878906 126.24613953 C39.45665889 131.51956566 39.03602307 131.96397693 35 136 C54.14 136.33 73.28 136.66 93 137 C92.67 129.08 92.34 121.16 92 113 C89.525 115.97 89.525 115.97 87 119 C83.77026367 119.68115234 83.77026367 119.68115234 80.16796875 119.5859375 C78.87568359 119.56660156 77.58339844 119.54726562 76.25195312 119.52734375 C74.89711097 119.47721901 73.54229326 119.42642942 72.1875 119.375 C70.81320906 119.34488122 69.43885501 119.31750872 68.06445312 119.29296875 C64.70803031 119.22230722 61.35481935 119.12367705 58 119 C58 116.36 58 113.72 58 111 C73.51 111 89.02 111 105 111 C106.32 115.62 107.64 120.24 109 125 C110.63985077 128.87995844 112.29911667 132.65299109 114.125 136.4375 C122.03154068 153.02279451 124.87806379 173.17696693 119.0625 191.125 C112.09645889 206.49699016 98.26331751 217.79826987 82.84765625 223.99609375 C73.78802734 227.30023244 64.3127651 229.4617579 54.93920898 231.67993164 C44.95772243 234.06531661 35.52443445 237.18168907 26 241 C23.525 241.99 23.525 241.99 21 243 C21 236.73 21 230.46 21 224 C28.66882667 224.43821867 36.18810899 224.99076951 43.79663086 226.02587891 C44.83765583 226.16616264 44.83765583 226.16616264 45.89971161 226.3092804 C47.59994046 226.53853809 49.29998879 226.76913397 51 227 C50.98510928 218.23720477 50.94344575 209.47505968 50.86790943 200.71257591 C50.83366637 196.64343315 50.80853372 192.57466474 50.80444336 188.50537109 C50.8001545 184.57575813 50.77164462 180.64698924 50.72656822 176.71763992 C50.71361173 175.22104439 50.70927903 173.72434774 50.71384621 172.22770309 C51.11421582 163.13954274 51.11421582 163.13954274 47.58251953 155.13427734 C44.44298187 152.5189447 44.44298187 152.5189447 41.0625 150.25 C40.12083984 149.66992188 40.12083984 149.66992188 39.16015625 149.078125 C31.20703196 145.10875375 21.69588216 144.3571061 13.12890625 146.828125 C9.83016044 148.27978982 7.0002769 149.9998154 4 152 C-2.12436004 152.72661899 -5.24022523 151.74985993 -10.23828125 148.19140625 C-16.1911924 144.16560159 -26.08197237 145.16158706 -33 146 C-37.48768392 147.39007573 -41.21996987 149.21652327 -45 152 C-46.02657715 152.70576172 -47.0531543 153.41152344 -48.11083984 154.13867188 C-53.09358815 159.23164021 -51.84837481 167.02837045 -51.8046875 173.6796875 C-51.81594499 175.21813024 -51.82982886 176.75655581 -51.84622192 178.29495239 C-51.88219639 182.32943539 -51.88264177 186.36315962 -51.87554932 190.39776611 C-51.87447417 195.24631012 -51.91777149 200.09463876 -51.95358276 204.94302368 C-52.00294777 212.2957417 -51.99613989 219.64648349 -52 227 C-42.1 226.01 -32.2 225.02 -22 224 C-22 230.27 -22 236.54 -22 243 C-26.36582142 242.12683572 -30.42569536 240.94389389 -34.625 239.5234375 C-35.36042526 239.27750351 -36.09585052 239.03156952 -36.8535614 238.77818298 C-39.2368156 237.98038061 -41.61854165 237.17814599 -44 236.375 C-47.27710849 235.27143533 -50.55448767 234.16867799 -53.83203125 233.06640625 C-54.63421585 232.79626205 -55.43640045 232.52611786 -56.26289368 232.24778748 C-60.64529404 230.77588262 -65.03570618 229.34148929 -69.44921875 227.96484375 C-88.59439415 221.96962956 -107.8816068 213.8607165 -117.890625 195.28515625 C-118.25671875 194.53105469 -118.6228125 193.77695313 -119 193 C-119.32484375 192.33871094 -119.6496875 191.67742187 -119.984375 190.99609375 C-125.89297904 178.0919255 -124.48736771 159.63346711 -119.95214844 146.484375 C-116.489821 137.45036373 -112.36268314 128.66520425 -108.26513672 119.90576172 C-107.00295993 117.00679835 -105.99985393 113.99956179 -105 111 C-88.17 111 -71.34 111 -54 111 C-55.08110587 116.40552937 -55.91825132 117.58272204 -60 121 C-65.33857246 122.74615807 -71.34696072 123.2846736 -76.4765625 120.80078125 C-78.74951037 119.29181753 -80.87915701 117.7155613 -83 116 C-84.65 114.68 -86.3 113.36 -88 112 C-88 122.56 -88 133.12 -88 144 C-87.34 144 -86.68 144 -86 144 C-85.690625 143.360625 -85.38125 142.72125 -85.0625 142.0625 C-84 140 -84 140 -83 139 C-81.45828506 138.93714561 -79.9137571 138.9406341 -78.37109375 138.97265625 C-77.41783203 138.98490234 -76.46457031 138.99714844 -75.48242188 139.00976562 C-73.47973709 139.04444971 -71.47712073 139.08339157 -69.47460938 139.12695312 C-59.22532379 139.24365631 -50.97719925 137.53194513 -43.26953125 130.3984375 C-38.13153203 124.84178649 -35.76490052 118.49602511 -35 111 C-34.92394531 110.33355469 -34.84789062 109.66710937 -34.76953125 108.98046875 C-34.27253784 101.31065148 -37.43531205 95.62205929 -41.78125 89.484375 C-44.35195104 86.60591398 -47.04989319 84.65362638 -50.25 82.5 C-50.82339111 82.11054199 -51.39678223 81.72108398 -51.98754883 81.31982422 C-55.1715912 79.17024841 -58.40172953 77.11454909 -61.6875 75.125 C-65 73 -65 73 -67 70 C-67.375 67.5 -67.375 67.5 -67 65 C-64.58741595 62.08479427 -62.90794237 61.9896064 -59.125 61.5625 C-52.26116204 61.84265665 -48.6742223 66.3257777 -44 71 C-44 61.1 -44 51.2 -44 41 C-45.32 42.32 -46.64 43.64 -48 45 C-50.03955078 45.390625 -50.03955078 45.390625 -52.1953125 45.25 C-52.98921387 45.21600098 -53.78311523 45.18200195 -54.60107422 45.14697266 C-55.85041748 45.07422119 -55.85041748 45.07422119 -57.125 45 C-66.17564562 44.74502813 -72.99959494 45.26049092 -79.875 51.6875 C-84.04401782 58.18626307 -85.89444277 63.2610994 -87 71 C-93.27 71 -99.54 71 -106 71 C-106.515625 69.30875 -107.03125 67.6175 -107.5625 65.875 C-109.64645232 59.5174353 -112.51197368 53.88116985 -115.70703125 48.03125 C-117.11005086 44.74199557 -117.10935664 44.20454912 -116 41 C-114.61282446 38.57462389 -113.19214032 36.22538961 -111.6875 33.875 C-111.25034668 33.18792969 -110.81319336 32.50085938 -110.36279297 31.79296875 C-109.41706268 30.31275303 -108.46804095 28.83463625 -107.51611328 27.35839844 C-106.4763822 25.74103898 -105.44385949 24.1190295 -104.41748047 22.49316406 C-102.83427549 19.9859824 -101.23212405 17.49190044 -99.625 15 C-99.12572998 14.2044873 -98.62645996 13.40897461 -98.11206055 12.58935547 C-97.63422119 11.85861816 -97.15638184 11.12788086 -96.6640625 10.375 C-96.24592285 9.72273438 -95.8277832 9.07046875 -95.39697266 8.3984375 C-94.93597168 7.93695313 -94.4749707 7.47546875 -94 7 C-89.23750851 7 -87.89548792 8.13391252 -84 10.75 C-68.95403286 20.44709595 -52.84932507 21.65070953 -35.67236328 18.0480957 C-22.79960945 15.06265955 -9.72033223 9.07814812 0 0 Z " fill="#D93932" transform="translate(203,33)"/>
<path d="M0 0 C32.79003777 25.70278254 71.6957593 37.05076914 113.1875 36.0625 C113.92291016 36.04848145 114.65832031 36.03446289 115.41601562 36.02001953 C151.76876385 35.17480942 189.13606214 20.39980637 216.76953125 -3.13671875 C220.10085109 -5.61771786 222.1164556 -5.43745282 226.1875 -4.9375 C231.59290476 -2.92372176 234.41017964 -0.02510764 237.2578125 4.921875 C239.02155713 8.98293406 239.04847533 12.75682908 238.1875 17.0625 C233.22135371 23.27923259 225.25442905 27.61129779 218.6875 31.9375 C217.62233154 32.64003906 216.55716309 33.34257812 215.4597168 34.06640625 C172.94926324 61.88605439 120.17891561 73.9429399 69.80419922 63.64013672 C37.22908428 56.44917554 6.17326677 43.17254204 -19.8125 22.0625 C-20.46500732 21.56169922 -21.11751465 21.06089844 -21.78979492 20.54492188 C-26.59256943 16.72750333 -26.59256943 16.72750333 -27.63671875 13.5703125 C-27.30055183 7.71140329 -26.40687266 2.83662074 -22.8125 -1.9375 C-13.7228154 -9.32286874 -8.29664038 -6.71803842 0 0 Z " fill="#F6F6F9" transform="translate(95.8125,273.9375)"/>
<path d="M0 0 C1.81812847 1.09087708 3.44097269 2.06597269 4.9375 3.5625 C11.21592607 4.09457001 13.77015165 3.38184443 18.9375 -0.4375 C27.10893073 -3.76226551 37.06475413 -3.8769958 45.375 -0.875 C51.35838749 1.92190901 56.28103391 6.07780086 59.9375 11.5625 C60.17800903 14.50480652 60.17800903 14.50480652 60.16455078 18.14526367 C60.16484283 18.80894455 60.16513489 19.47262543 60.16543579 20.15641785 C60.16404357 22.34790161 60.14848779 24.53904445 60.1328125 26.73046875 C60.12908198 28.25075596 60.12623519 29.77104558 60.12423706 31.29133606 C60.11660366 35.29119514 60.09695774 39.29090879 60.0748291 43.29071045 C60.05436434 47.37282341 60.045234 51.45495989 60.03515625 55.53710938 C60.01371152 63.54563963 59.97957917 71.55405172 59.9375 79.5625 C57.5356303 79.40836071 55.13388282 79.25261372 52.73217773 79.09594727 C52.05625328 79.05273598 51.38032883 79.00952469 50.68392181 78.96500397 C46.47902487 78.68920088 42.31523075 78.29304806 38.13647461 77.76245117 C15.13331773 74.93667199 -8.1912611 76.02080213 -31.07006836 79.28710938 C-35.07264267 79.65546246 -39.04617995 79.61485833 -43.0625 79.5625 C-43.22501903 70.68712893 -43.3492329 61.81227349 -43.4251852 52.93573666 C-43.46164774 48.81347364 -43.51106523 44.6922319 -43.59057617 40.57055664 C-43.66689295 36.58933616 -43.70854276 32.60909491 -43.7266407 28.62719917 C-43.73952954 27.11168571 -43.76470032 25.59622314 -43.8026104 24.08112907 C-44.08718489 12.23175626 -44.08718489 12.23175626 -41.55162048 8.10121155 C-39.81005457 6.32655276 -38.13076177 4.93256148 -36.0625 3.5625 C-35.17949219 2.90378906 -34.29648438 2.24507812 -33.38671875 1.56640625 C-23.27409151 -3.96182998 -10.55421472 -5.17868212 0 0 Z " fill="#31388E" transform="translate(194.0625,180.4375)"/>
<path d="M0 0 C16.83 0 33.66 0 51 0 C49.91889413 5.40552937 49.08174868 6.58272204 45 10 C39.66142754 11.74615807 33.65303928 12.2846736 28.5234375 9.80078125 C26.25048963 8.29181753 24.12084299 6.7155613 22 5 C19.525 3.02 19.525 3.02 17 1 C17 11.56 17 22.12 17 33 C17.66 33 18.32 33 19 33 C19.309375 32.360625 19.61875 31.72125 19.9375 31.0625 C21 29 21 29 22 28 C23.54171494 27.93714561 25.0862429 27.9406341 26.62890625 27.97265625 C27.58216797 27.98490234 28.53542969 27.99714844 29.51757812 28.00976562 C31.52026291 28.04444971 33.52287927 28.08339157 35.52539062 28.12695312 C45.77467621 28.24365631 54.02280075 26.53194513 61.73046875 19.3984375 C67.12537785 13.56394321 68.71013074 7.73921556 70 0 C74.29 0 78.58 0 83 0 C83 11.22 83 22.44 83 34 C79.37 34.33 75.74 34.66 72 35 C68.55244193 36.08558746 68.55244193 36.08558746 65.6875 37.6875 C64.74261719 38.16574219 63.79773438 38.64398438 62.82421875 39.13671875 C57.70212954 42.36983882 57.70212954 42.36983882 54 47 C53.08294893 52.21438378 53.1606674 57.4050306 53.1953125 62.6796875 C53.18405501 64.21813024 53.17017114 65.75655581 53.15377808 67.29495239 C53.11780361 71.32943539 53.11735823 75.36315962 53.12445068 79.39776611 C53.12552583 84.24631012 53.08222851 89.09463876 53.04641724 93.94302368 C52.99705223 101.2957417 53.00386011 108.64648349 53 116 C62.9 115.01 72.8 114.02 83 113 C83 119.27 83 125.54 83 132 C78.63417858 131.12683572 74.57430464 129.94389389 70.375 128.5234375 C69.63957474 128.27750351 68.90414948 128.03156952 68.1464386 127.77818298 C65.7631844 126.98038061 63.38145835 126.17814599 61 125.375 C57.72289151 124.27143533 54.44551233 123.16867799 51.16796875 122.06640625 C50.36578415 121.79626205 49.56359955 121.52611786 48.73710632 121.24778748 C44.35470596 119.77588262 39.96429382 118.34148929 35.55078125 116.96484375 C16.40560585 110.96962956 -2.8816068 102.8607165 -12.890625 84.28515625 C-13.25671875 83.53105469 -13.6228125 82.77695313 -14 82 C-14.32484375 81.33871094 -14.6496875 80.67742187 -14.984375 79.99609375 C-20.89297904 67.0919255 -19.48736771 48.63346711 -14.95214844 35.484375 C-11.489821 26.45036373 -7.36268314 17.66520425 -3.26513672 8.90576172 C-2.00295993 6.00679835 -0.99985393 2.99956179 0 0 Z " fill="#FBFBFC" transform="translate(98,144)"/>
<path d="M0 0 C5.94 0 11.88 0 18 0 C18.10792137 3.41751005 18.18727736 6.83161597 18.25 10.25 C18.30027344 11.70212891 18.30027344 11.70212891 18.3515625 13.18359375 C18.36445313 14.11816406 18.37734375 15.05273438 18.390625 16.015625 C18.41157227 16.87446289 18.43251953 17.73330078 18.45410156 18.61816406 C18 21 18 21 14 25 C33.14 25.33 52.28 25.66 72 26 C71.67 18.08 71.34 10.16 71 2 C69.35 3.98 67.7 5.96 66 8 C62.77026367 8.68115234 62.77026367 8.68115234 59.16796875 8.5859375 C57.87568359 8.56660156 56.58339844 8.54726562 55.25195312 8.52734375 C53.89711097 8.47721901 52.54229326 8.42642942 51.1875 8.375 C49.81320906 8.34488122 48.43885501 8.31750872 47.06445312 8.29296875 C43.70803031 8.22230722 40.35481935 8.12367705 37 8 C37 5.36 37 2.72 37 0 C52.51 0 68.02 0 84 0 C85.32 4.62 86.64 9.24 88 14 C89.63985077 17.87995844 91.29911667 21.65299109 93.125 25.4375 C101.03154068 42.02279451 103.87806379 62.17696693 98.0625 80.125 C91.09645889 95.49699016 77.26331751 106.79826987 61.84765625 112.99609375 C52.78802734 116.30023244 43.3127651 118.4617579 33.93920898 120.67993164 C23.95772243 123.06531661 14.52443445 126.18168907 5 130 C2.525 130.99 2.525 130.99 0 132 C0 125.73 0 119.46 0 113 C7.66882667 113.43821867 15.18810899 113.99076951 22.79663086 115.02587891 C23.49064751 115.1194014 24.18466415 115.21292389 24.89971161 115.3092804 C26.59994046 115.53853809 28.29998879 115.76913397 30 116 C29.98510928 107.23720477 29.94344575 98.47505968 29.86790943 89.71257591 C29.83366637 85.64343315 29.80853372 81.57466474 29.80444336 77.50537109 C29.8001545 73.57575813 29.77164462 69.64698924 29.72656822 65.71763992 C29.71361173 64.22104439 29.70927903 62.72434774 29.71384621 61.22770309 C30.11421582 52.13954274 30.11421582 52.13954274 26.58251953 44.13427734 C17.96136266 37.00947555 11.38907118 35.13890712 0 34 C0 22.78 0 11.56 0 0 Z " fill="#FCFCFC" transform="translate(224,144)"/>
<path d="M0 0 C2.62029788 0.26688844 3.70328593 0.63986732 5.39697266 2.69555664 C5.8151123 3.42637451 6.23325195 4.15719238 6.6640625 4.91015625 C7.14214355 5.72790527 7.62022461 6.5456543 8.11279297 7.38818359 C8.61182129 8.27070801 9.11084961 9.15323242 9.625 10.0625 C10.68022005 11.89052032 11.7375443 13.71732746 12.796875 15.54296875 C13.32732422 16.45997559 13.85777344 17.37698242 14.40429688 18.32177734 C15.8959573 20.82537509 17.4562816 23.25504918 19.078125 25.67578125 C19.55040527 26.38790771 20.02268555 27.10003418 20.50927734 27.83374023 C21.40025831 29.16543344 22.30627214 30.48722603 23.22900391 31.79711914 C25.1747567 34.74660817 26.10861692 36.35864297 25.5078125 39.90625 C25.01023437 40.9271875 24.51265625 41.948125 24 43 C23.70335449 43.65887207 23.40670898 44.31774414 23.10107422 44.99658203 C22.0988385 47.22215699 21.05471545 49.42385472 20 51.625 C19.64421875 52.37523437 19.2884375 53.12546875 18.921875 53.8984375 C17.31335904 57.28352332 15.67626944 60.64746112 14 64 C-1.51 64 -17.02 64 -33 64 C-33 56.74 -33 49.48 -33 42 C-31.35 40.68 -29.7 39.36 -28 38 C-37.57 37.67 -47.14 37.34 -57 37 C-57 37.66 -57 38.32 -57 39 C-56.360625 39.309375 -55.72125 39.61875 -55.0625 39.9375 C-53 41 -53 41 -52 42 C-51.91286169 43.70772358 -51.89299993 45.41898649 -51.90234375 47.12890625 C-51.90556641 48.16337891 -51.90878906 49.19785156 -51.91210938 50.26367188 C-51.92048828 51.35228516 -51.92886719 52.44089844 -51.9375 53.5625 C-51.94201172 54.65498047 -51.94652344 55.74746094 -51.95117188 56.87304688 C-51.9630016 59.58205432 -51.98093769 62.2910338 -52 65 C-57.94 65 -63.88 65 -70 65 C-70 45.86 -70 26.72 -70 7 C-66.7 7.99 -63.4 8.98 -60 10 C-39.14765989 15.01206632 -19.36573323 11.66668348 -1 1 C-0.67 0.67 -0.34 0.34 0 0 Z " fill="#FCFBFC" transform="translate(294,40)"/>
<path d="M0 0 C3.31294749 1.57833819 6.37659698 3.45225997 9.5 5.375 C24.15773362 13.94468592 39.28426133 15.83447338 55.6875 12.125 C56.50283203 11.95097656 57.31816406 11.77695312 58.15820312 11.59765625 C62.5933049 10.62960655 66.65616432 9.44794523 71 8 C71 26.81 71 45.62 71 65 C64.07 65 57.14 65 50 65 C50 55.1 50 45.2 50 35 C46 36.5 46 36.5 45 39 C43.74445313 38.95359375 42.48890625 38.9071875 41.1953125 38.859375 C25.9618882 38.31203925 25.9618882 38.31203925 13.125 45.6875 C8.95598218 52.18626307 7.10555723 57.2610994 6 65 C-0.27 65 -6.54 65 -13 65 C-13.515625 63.30875 -14.03125 61.6175 -14.5625 59.875 C-16.64645232 53.5174353 -19.51197368 47.88116985 -22.70703125 42.03125 C-24.11005086 38.74199557 -24.10935664 38.20454912 -23 35 C-21.6128535 32.57467468 -20.19136406 30.22581178 -18.6875 27.875 C-18.25252197 27.18720459 -17.81754395 26.49940918 -17.36938477 25.79077148 C-2.65141593 2.65141593 -2.65141593 2.65141593 0 0 Z " fill="#FCFCFD" transform="translate(110,39)"/>
<path d="M0 0 C0.66 0 1.32 0 2 0 C2 9.9 2 19.8 2 30 C-1.92505231 28.03747385 -3.98275613 26.09664503 -7 23 C-10.12706959 21.4364652 -13.57982443 21.60041513 -17 22 C-17.99 22.66 -18.98 23.32 -20 24 C-20.58402133 26.41417872 -20.58402133 26.41417872 -20 29 C-16.93035861 32.62502883 -13.13084354 34.97530954 -9.125 37.4375 C-2.27555203 41.65764375 3.52335718 45.59584043 7.8125 52.625 C8.39644531 53.56601563 8.98039062 54.50703125 9.58203125 55.4765625 C13.80009767 62.98309393 12.19693764 71.18436393 10.04296875 79.1328125 C7.16235606 87.05180019 1.15470673 92.57642107 -6 96.75 C-13.44728418 99.85303507 -21.30730853 98.99862236 -29.20898438 98.69726562 C-30.16482422 98.67986328 -31.12066406 98.66246094 -32.10546875 98.64453125 C-32.97324951 98.61721924 -33.84103027 98.58990723 -34.73510742 98.56176758 C-37.18451532 98.78758062 -37.18451532 98.78758062 -38.6809082 101.0222168 C-39.1162085 101.67488525 -39.55150879 102.32755371 -40 103 C-40.66 103 -41.32 103 -42 103 C-42 92.44 -42 81.88 -42 71 C-38.88490242 72.55754879 -36.5810576 73.96864935 -33.875 76.0625 C-28.50309782 80.20798678 -24.75571582 80.56550088 -18 80 C-14.58984916 79.15522675 -11.85089361 78.03587049 -9.5625 75.25 C-8.31595682 70.26382727 -8.39411127 66.52982255 -11.02734375 62.09375 C-13.93533624 57.6215044 -17.41089988 55.32396021 -22 52.75 C-36.93600014 44.04192612 -36.93600014 44.04192612 -40 35 C-41.08075013 27.01974102 -41.07128669 19.63809388 -36.48046875 12.796875 C-32.28989837 7.71069459 -27.48458642 4.41745693 -21 3 C-14.59627071 2.48583196 -8.33407875 3.04391264 -2 4 C-1.34 2.68 -0.68 1.36 0 0 Z " fill="#363B8F" transform="translate(157,74)"/>
<path d="M0 0 C9.9 0 19.8 0 30 0 C28.68 1.65 27.36 3.3 26 5 C25.34 5 24.68 5 24 5 C24 28.1 24 51.2 24 75 C33.57 75 43.14 75 53 75 C53.66 73.68 54.32 72.36 55 71 C56.32 70.01 57.64 69.02 59 68 C59 76.25 59 84.5 59 93 C39.53 93 20.06 93 0 93 C1.32 91.35 2.64 89.7 4 88 C4.38718894 85.15510109 4.54809811 82.70073617 4.51757812 79.86083984 C4.5245874 79.05538223 4.53159668 78.24992462 4.53881836 77.4200592 C4.55637598 74.76666454 4.54478621 72.11434235 4.53125 69.4609375 C4.53394504 67.61438798 4.53782756 65.76783984 4.54284668 63.92129517 C4.54873823 60.05611628 4.5401879 56.19130767 4.52148438 52.32617188 C4.49866296 47.3681165 4.5118401 42.4109257 4.53577423 37.45290184 C4.55021426 33.64221658 4.54563506 29.83173707 4.53526306 26.02104568 C4.53259245 24.19257124 4.53587725 22.36407818 4.54518127 20.53562546 C4.55532104 17.98336876 4.53988459 15.43252248 4.51757812 12.88037109 C4.52567505 12.12290085 4.53377197 11.3654306 4.54211426 10.58500671 C4.549181 8.23986875 4.549181 8.23986875 4 5 C2.08773263 3.10592675 2.08773263 3.10592675 0 2 C0 1.34 0 0.68 0 0 Z " fill="#3E4293" transform="translate(237,77)"/>
<path d="M0 0 C0.99 0.66 1.98 1.32 3 2 C3.36076355 4.3664856 3.36076355 4.3664856 3.34057617 7.36767578 C3.34023628 9.04919235 3.34023628 9.04919235 3.33988953 10.76467896 C3.32440567 11.97928802 3.30892181 13.19389709 3.29296875 14.4453125 C3.28872391 15.68546112 3.28447906 16.92560974 3.28010559 18.20333862 C3.26613216 21.50135463 3.23917361 24.7989335 3.20599365 28.09680176 C3.17531238 31.46161542 3.16160446 34.82649304 3.14648438 38.19140625 C3.1133473 44.79444271 3.06309697 51.39718558 3 58 C2.39622025 57.93016907 1.79244049 57.86033813 1.17036438 57.78839111 C-0.02904533 57.65192169 -0.02904533 57.65192169 -1.25268555 57.51269531 C-2.0420903 57.42223938 -2.83149506 57.33178345 -3.64482117 57.23858643 C-7.03748055 56.89490022 -10.40349882 56.79144682 -13.8125 56.75 C-15.70935547 56.71132812 -15.70935547 56.71132812 -17.64453125 56.671875 C-21.33899856 56.78889546 -24.69821108 57.59733853 -28.2722168 58.52050781 C-29.3466655 58.7959845 -30.4211142 59.07146118 -31.52812195 59.35528564 C-32.34384171 59.56804138 -33.15956146 59.78079712 -34 60 C-34.11591817 52.63738276 -34.20472648 45.27496266 -34.25906086 37.91161728 C-34.28514091 34.49234507 -34.3205065 31.07369772 -34.37719727 27.65478516 C-34.44198227 23.72305822 -34.4661939 19.79158311 -34.48828125 15.859375 C-34.51408768 14.63321472 -34.5398941 13.40705444 -34.56648254 12.14373779 C-34.5668602 11.00285706 -34.56723785 9.86197632 -34.56762695 8.68652344 C-34.57873001 7.68280701 -34.58983307 6.67909058 -34.60127258 5.6449585 C-33.77102497 1.9927539 -32.06890867 1.01779424 -29 -1 C-18.96791477 -6.40189205 -10.22725334 -3.88125681 0 0 Z " fill="#F6F6F9" transform="translate(195,188)"/>
<path d="M0 0 C2 2 2 2 2.24050903 4.40444946 C2.2338472 5.91668594 2.2338472 5.91668594 2.22705078 7.45947266 C2.22689972 8.60050446 2.22674866 9.74153625 2.22659302 10.91714478 C2.21627045 12.15362762 2.20594788 13.39011047 2.1953125 14.6640625 C2.1924826 15.92640717 2.18965271 17.18875183 2.18673706 18.48934937 C2.17742131 21.84646944 2.15944835 25.20331912 2.1373291 28.56036377 C2.1168755 31.98553122 2.1077364 35.41072659 2.09765625 38.8359375 C2.07556458 45.55736671 2.04206377 52.27866773 2 59 C0.56206608 58.68950274 -0.8753318 58.3765224 -2.3125 58.0625 C-3.11300781 57.88847656 -3.91351563 57.71445313 -4.73828125 57.53515625 C-7 57 -7 57 -10 56 C-12.7398082 55.90245709 -15.44836652 55.86086861 -18.1875 55.875 C-18.91775391 55.87113281 -19.64800781 55.86726563 -20.40039062 55.86328125 C-21.12806641 55.86457031 -21.85574219 55.86585938 -22.60546875 55.8671875 C-23.58229614 55.86887939 -23.58229614 55.86887939 -24.57885742 55.87060547 C-28.06793259 56.05707414 -31.53292713 56.56661589 -35 57 C-35 38.52 -35 20.04 -35 1 C-24.33548556 -5.09400825 -10.79272055 -7.33904997 0 0 Z " fill="#F9F9FB" transform="translate(243,189)"/>
<path d="M0 0 C0.495 0.99 0.495 0.99 1 2 C0.525625 3.155 0.05125 4.31 -0.4375 5.5 C-2.14094441 10.31475841 -2.27589334 14.76488419 -2.25 19.8125 C-2.24504517 20.8953125 -2.24504517 20.8953125 -2.23999023 22 C-2.13331917 28.38613554 -1.53306553 34.60321361 -1 41 C-16.18 41 -31.36 41 -47 41 C-47 27.8 -47 14.6 -47 1 C-31.49 0.67 -15.98 0.34 0 0 Z " fill="#DB4640" transform="translate(308,103)"/>
<path d="M0 0 C0.33 0 0.66 0 1 0 C1.00386719 1.12535156 1.00386719 1.12535156 1.0078125 2.2734375 C1.04648438 3.29695313 1.08515625 4.32046875 1.125 5.375 C1.14820312 6.37273437 1.17140625 7.37046875 1.1953125 8.3984375 C2.84331776 15.77446105 6.45929041 21.36260672 12.78515625 25.5390625 C14.53081546 26.59038086 16.29033618 27.6190021 18.0625 28.625 C24.59733571 32.37551022 30.16089116 35.69038884 33 43 C33 44.32 33 45.64 33 47 C16.5 47 0 47 -17 47 C-16.875 34.3125 -16.875 34.3125 -16.81982422 30.3996582 C-16.78220216 22.3867658 -17.60315714 14.89161224 -19 7 C-12.73 7 -6.46 7 0 7 C0 4.69 0 2.38 0 0 Z " fill="#D83832" transform="translate(116,97)"/>
<path d="M0 0 C0 2.31 0 4.62 0 7 C-0.86882812 6.89300781 -1.73765625 6.78601563 -2.6328125 6.67578125 C-11.28540687 5.5479766 -11.28540687 5.5479766 -19 9 C-21.11337546 12.17006319 -21.29691433 14.03427637 -21.4609375 17.76953125 C-20.61760954 21.85038095 -18.52146876 24.84201854 -15.20654297 27.36499023 C-13.08237857 28.7334374 -10.92691565 30.02974616 -8.75 31.3125 C-0.63939799 36.32014654 6.94450121 41.5308363 10 51 C11.0360326 59.75918473 9.84607019 68.78841147 4.3125 75.875 C-0.3881535 80.84526704 -6.67292526 83.70698549 -13.48046875 84.16796875 C-19.53168986 84.21162835 -25.20094767 83.84760505 -31 82 C-32 81 -32 81 -32.09765625 79.15234375 C-32.06510417 77.1015625 -32.03255208 75.05078125 -32 73 C-30.96875 73.33 -29.9375 73.66 -28.875 74 C-21.57863109 75.79803377 -13.34323061 76.44104768 -6.375 73.4375 C-0.58833976 67.49855923 0.44497487 63.19875876 0.62890625 55.0625 C-0.83312879 47.94302502 -5.9434267 43.84700344 -11.75 40 C-12.99156551 39.14030427 -14.23245042 38.2796248 -15.47265625 37.41796875 C-16.64832025 36.61180815 -17.82409366 35.80580707 -19 35 C-29.21229214 27.91247041 -29.21229214 27.91247041 -31 21 C-31.90635534 14.57417301 -30.92410543 9.25120814 -27 4 C-19.47564199 -3.03553661 -9.44213398 -3.97563536 0 0 Z " fill="#F5F5F8" transform="translate(153,84)"/>
<path d="M0 0 C0.68992538 -0.00095673 1.37985077 -0.00191345 2.09068298 -0.00289917 C3.54035535 -0.00357589 4.99003083 -0.00175725 6.43969727 0.00244141 C8.64932085 0.00780516 10.85874196 0.00247496 13.06835938 -0.00390625 C14.48307336 -0.00324554 15.89778722 -0.00196452 17.3125 0 C18.58875244 0.00112793 19.86500488 0.00225586 21.17993164 0.00341797 C24.122754 0.11508804 26.73502449 0.44645629 29.58984375 1.1328125 C31.1112708 18.05446225 31.1112708 18.05446225 27.6796875 22.7421875 C25.06531001 24.50396275 22.45042745 25.81407545 19.58984375 27.1328125 C17.97012326 28.27778733 16.36482315 29.44353921 14.77734375 30.6328125 C12.25860358 32.4852443 11.23878153 33.17742697 8.08984375 32.9609375 C5.44825158 32.08591009 3.64676989 31.01665367 1.40234375 29.3828125 C-3.32249443 26.08974346 -8.21865082 23.61888552 -13.41015625 21.1328125 C-13.41015625 14.5328125 -13.41015625 7.9328125 -13.41015625 1.1328125 C-8.6963048 0.34717059 -4.72541743 0.00417255 0 0 Z " fill="#D83933" transform="translate(194.41015625,255.8671875)"/>
<path d="M0 0 C0.66 0.33 1.32 0.66 2 1 C-8.29227988 18.50497996 -19.17935058 34.03990442 -34 48 C-36 47 -36 47 -37.0625 44.875 C-37 42 -37 42 -35.53515625 40.25390625 C-34.27327198 39.05395495 -32.98265065 37.88344169 -31.6640625 36.74609375 C-29.8298251 34.82143619 -29.3971543 33.59285019 -29 31 C-32.97614372 32.32538124 -35.11189884 34.01230914 -38 37 C-38.66 37 -39.32 37 -40 37 C-40 34 -40 34 -38.35546875 32.28125 C-37.64003906 31.6934375 -36.92460937 31.105625 -36.1875 30.5 C-33.17056027 28.0034828 -33.17056027 28.0034828 -30.36328125 25.28125 C-29 24 -29 24 -27 24 C-27 22.35 -27 20.7 -27 19 C-32.59476338 21.15183207 -35.97870897 24.79872538 -40.046875 29.13671875 C-42 31 -42 31 -44 31 C-43.71125 30.443125 -43.4225 29.88625 -43.125 29.3125 C-41.9586747 26.91505355 -40.9660119 24.48403061 -40 22 C-43.061396 23.02046533 -44.82171126 23.81090589 -47.0625 26.1875 C-48.0215625 27.0846875 -48.0215625 27.0846875 -49 28 C-51.25 27.75 -51.25 27.75 -53 27 C-51.41041919 23.04453147 -48.80153382 20.66813344 -45.75 17.75 C-41.84988456 13.96175228 -38.32601175 10.12767545 -35.21875 5.65625 C-34 4 -34 4 -31 1 C-31 4.96 -31 8.92 -31 13 C-30.0713916 12.60095459 -29.1427832 12.20190918 -28.18603516 11.79077148 C-24.74909766 10.3162646 -21.30787094 8.85201465 -17.86523438 7.39086914 C-16.37412873 6.75630424 -14.88421075 6.11894115 -13.39550781 5.47875977 C-11.25890172 4.56053125 -9.1182655 3.65235866 -6.9765625 2.74609375 C-5.97491562 2.31181313 -5.97491562 2.31181313 -4.95303345 1.86875916 C-3.32584514 1.18602567 -1.6648072 0.58505023 0 0 Z " fill="#F6F7F9" transform="translate(376,236)"/>
<path d="M0 0 C7.26753688 2.36137634 14.41505702 4.986206 21.5625 7.6875 C22.66658203 8.10322266 23.77066406 8.51894531 24.90820312 8.94726562 C27.6060418 9.96333474 30.30328845 10.98094405 33 12 C33 8.7 33 5.4 33 2 C36.60179955 5.55612455 40.08450572 9.20150415 43.5 12.9375 C43.96019531 13.43701172 44.42039063 13.93652344 44.89453125 14.45117188 C54 24.39023988 54 24.39023988 54 27 C51.625 26.75 51.625 26.75 49 26 C47.6875 23.9375 47.6875 23.9375 47 22 C45.68 22 44.36 22 43 22 C43.54723683 25.37462715 44.0549 27.08235 46 30 C41.59461074 28.09767282 38.63720248 24.96936266 35.21875 21.6796875 C32.93227553 19.5976084 32.93227553 19.5976084 29 20 C30.80139305 24.6662591 34.47919304 27.28497053 38.1875 30.46484375 C39.49135757 31.60658146 40.7496855 32.79986534 42 34 C42 34.66 42 35.32 42 36 C39.76224708 34.99686938 38.1492612 34.15523165 36.4375 32.375 C34.97021721 30.65438868 34.97021721 30.65438868 32 31 C32.5646775 34.38082556 33.48463305 35.68178527 36.125 37.8125 C37.765625 39.33984375 37.765625 39.33984375 39 41 C38.875 44.875 38.875 44.875 38 48 C24.57089919 41.97904052 14.82761204 23.93227435 6.8125 12.25 C6.14017334 11.27272949 5.46784668 10.29545898 4.77514648 9.28857422 C4.15454346 8.37350098 3.53394043 7.45842773 2.89453125 6.515625 C2.05692261 5.28247559 2.05692261 5.28247559 1.20239258 4.02441406 C0 2 0 2 0 0 Z " fill="#F6F6F9" transform="translate(25,235)"/>
<path d="M0 0 C2.64 0 5.28 0 8 0 C8 24.75 8 49.5 8 75 C19.22 75 30.44 75 42 75 C42 76.98 42 78.96 42 81 C28.14 81 14.28 81 0 81 C0 54.27 0 27.54 0 0 Z " fill="#FBFBFC" transform="translate(248,83)"/>
<path d="M0 0 C0 21.45 0 42.9 0 65 C-10.209375 65.12375 -10.209375 65.12375 -20.625 65.25 C-23.83210693 65.30462402 -23.83210693 65.30462402 -27.10400391 65.36035156 C-28.81151324 65.37204142 -30.51903377 65.38223255 -32.2265625 65.390625 C-33.10272217 65.41108887 -33.97888184 65.43155273 -34.8815918 65.45263672 C-40.42484902 65.45578183 -43.63443129 64.75596609 -48 61 C-50.14762184 57.77856724 -50.561068 56.7404533 -50 53 C-47.58741595 50.08479427 -45.90794237 49.9896064 -42.125 49.5625 C-35.26116204 49.84265665 -31.6742223 54.3257777 -27 59 C-27 49.1 -27 39.2 -27 29 C-26.67 29 -26.34 29 -26 29 C-26 38.9 -26 48.8 -26 59 C-19.07 59 -12.14 59 -5 59 C-5.01571045 57.28377441 -5.0314209 55.56754883 -5.04760742 53.79931641 C-5.09593829 48.13558231 -5.13043391 42.47187782 -5.15543652 36.80799294 C-5.17110785 33.37318046 -5.19237214 29.93859059 -5.22631836 26.50390625 C-5.2650808 22.55731856 -5.27969712 18.61082172 -5.29296875 14.6640625 C-5.30845261 13.42757965 -5.32393646 12.1910968 -5.33988953 10.91714478 C-5.34011612 9.77611298 -5.34034271 8.63508118 -5.34057617 7.45947266 C-5.34723801 6.451315 -5.35389984 5.44315735 -5.36076355 4.40444946 C-5.24171158 3.61098114 -5.12265961 2.81751282 -5 2 C-2 0 -2 0 0 0 Z " fill="#D34B4B" transform="translate(186,45)"/>
<path d="M0 0 C2.64 0 5.28 0 8 0 C9.35017247 5.32921016 10.67831507 10.66367327 12 16 C12.2568457 17.03318359 12.51369141 18.06636719 12.77832031 19.13085938 C13.6086024 22.48153514 14.43012032 25.83426508 15.25 29.1875 C15.52021973 30.27409912 15.79043945 31.36069824 16.06884766 32.48022461 C16.31940918 33.51155518 16.5699707 34.54288574 16.828125 35.60546875 C17.0540332 36.52481201 17.27994141 37.44415527 17.51269531 38.39135742 C17.99855132 40.99224489 18.08936609 43.36101939 18 46 C15.69 46 13.38 46 11 46 C10.505 41.05 10.505 41.05 10 36 C6.37 36 2.74 36 -1 36 C-1.2165625 38.1965625 -1.2165625 38.1965625 -1.4375 40.4375 C-1.875 44.875 -1.875 44.875 -3 46 C-4.99958364 46.04080783 -7.00045254 46.04254356 -9 46 C-8.35181768 40.21533291 -7.37539625 34.59494723 -6.15234375 28.90625 C-5.88811363 27.65805481 -5.88811363 27.65805481 -5.61854553 26.38464355 C-5.06129994 23.75575863 -4.49947983 21.12787649 -3.9375 18.5 C-3.55633647 16.70579376 -3.17547418 14.91152349 -2.79492188 13.1171875 C-1.86676101 8.74404403 -0.93449937 4.37179318 0 0 Z " fill="#333A8F" transform="translate(176,194)"/>
<path d="M0 0 C3.03906147 2.09839959 4.25243948 3.38109871 5.625 6.8125 C6.08153767 13.20402741 4.86510547 17.92661184 2.625 23.875 C0.54480637 29.42686814 -0.75492956 33.85235503 -0.375 39.8125 C0.945 40.1425 2.265 40.4725 3.625 40.8125 C3.955 39.4925 4.285 38.1725 4.625 36.8125 C5.945 36.8125 7.265 36.8125 8.625 36.8125 C8.13970588 43.24264706 8.13970588 43.24264706 5.875 45.75 C3.15121186 47.03623329 1.59805472 47.34612521 -1.375 46.8125 C-3.65297497 44.51813672 -4.33282824 43.12134611 -4.7734375 39.89453125 C-4.72933898 33.74278773 -4.29063289 28.80373756 -2.05078125 23.08203125 C-0.77740529 18.80554898 -0.79497724 14.21916642 -1.375 9.8125 C-3.96835905 7.21914095 -5.86247032 7.53523437 -9.40234375 7.44921875 C-11.98033998 7.92397845 -12.8336627 8.71325533 -14.375 10.8125 C-15.50317318 15.78256023 -14.41724359 20.13060772 -12.375 24.6875 C-9.57792348 31.06801974 -9.18573262 37.31465478 -11.4375 43.9375 C-13.375 45.8125 -13.375 45.8125 -16.8125 46.875 C-20.375 46.8125 -20.375 46.8125 -22.8125 45.25 C-24.74669764 42.23265168 -24.69491247 40.33153714 -24.375 36.8125 C-20.375 36.8125 -20.375 36.8125 -18.125 38.8125 C-17.5475 39.4725 -16.97 40.1325 -16.375 40.8125 C-15.01997454 39.65962427 -15.01997454 39.65962427 -14.9375 36.5625 C-14.9574642 31.05238163 -17.5433299 26.59720347 -19.96484375 21.765625 C-22.23979586 17.00145937 -22.83239654 13.11829989 -22.375 7.8125 C-17.75447022 -1.42855956 -9.24644409 -3.25337848 0 0 Z " fill="#383F91" transform="translate(233.375,195.1875)"/>
<path d="M0 0 C0.33 0 0.66 0 1 0 C1 18.81 1 37.62 1 57 C-8 55 -8 55 -11 54 C-13.7398082 53.90245709 -16.44836652 53.86086861 -19.1875 53.875 C-19.91775391 53.87113281 -20.64800781 53.86726563 -21.40039062 53.86328125 C-26.348702 53.87204708 -31.10120175 54.30096424 -36 55 C-36 50.71 -36 46.42 -36 42 C-35.67 42 -35.34 42 -35 42 C-34.71125 42.94875 -34.4225 43.8975 -34.125 44.875 C-33.23174891 48.05211578 -33.23174891 48.05211578 -31 50 C-27.46537413 49.99510849 -27.46537413 49.99510849 -24 49 C-20.91838803 44.52864145 -21.40670568 39.18787595 -22 34 C-22.89239621 31.39265106 -23.97213598 28.93749501 -25.09375 26.421875 C-26.5306008 22.58201509 -26.78618463 19.02100681 -26 15 C-24.5 12.4375 -24.5 12.4375 -22 11 C-18.56011996 10.40476925 -15.25839687 10.11826614 -12.27734375 12.20703125 C-9.6592708 15.88194098 -10.54667225 20.69919824 -11 25 C-11.6796875 27.265625 -11.6796875 27.265625 -12.5 29.375 C-14.66813771 35.04709487 -14.63894992 41.0088072 -14 47 C-13.34 47.99 -12.68 48.98 -12 50 C-6.95726702 49.71549904 -6.95726702 49.71549904 -2.80371094 47.08129883 C-0.23389175 42.69124902 -0.39718969 38.89124776 -0.390625 33.88671875 C-0.37408875 32.91716751 -0.35755249 31.94761627 -0.34051514 30.94868469 C-0.29205255 27.86155857 -0.27066775 24.77492501 -0.25 21.6875 C-0.22183891 19.59047003 -0.19191129 17.493463 -0.16015625 15.39648438 C-0.08629378 10.26436346 -0.03670829 5.13251571 0 0 Z " fill="#F7F7FA" transform="translate(244,191)"/>
<path d="M0 0 C2.475 0.99 2.475 0.99 5 2 C5 21.47 5 40.94 5 61 C10.94 61 16.88 61 23 61 C23 62.98 23 64.96 23 67 C15.41 67 7.82 67 0 67 C0 44.89 0 22.78 0 0 Z " fill="#DB4D48" transform="translate(219,44)"/>
<path d="M0 0 C1.27351308 2.54702616 0.80191925 3.4282945 0.0625 6.125 C-0.13214844 6.84945312 -0.32679688 7.57390625 -0.52734375 8.3203125 C-0.76130859 9.15175781 -0.76130859 9.15175781 -1 10 C-1.495 9.01 -1.495 9.01 -2 8 C-16.85 8 -31.7 8 -47 8 C-47 5.69 -47 3.38 -47 1 C-31.49 0.67 -15.98 0.34 0 0 Z " fill="#DA4D4A" transform="translate(308,103)"/>
<path d="M0 0 C7.59 0 15.18 0 23 0 C23 1.98 23 3.96 23 6 C17.06 6 11.12 6 5 6 C5 17.22 5 28.44 5 40 C3.35 40 1.7 40 0 40 C0 26.8 0 13.6 0 0 Z " fill="#DA413C" transform="translate(219,138)"/>
<path d="M0 0 C16.17 0 32.34 0 49 0 C49.495 2.97 49.495 2.97 50 6 C33.5 6 17 6 0 6 C0 4.02 0 2.04 0 0 Z " fill="#E47874" transform="translate(99,138)"/>
<path d="M0 0 C11.88 0 23.76 0 36 0 C36 8.58 36 17.16 36 26 C35.67 26 35.34 26 35 26 C34.67 18.08 34.34 10.16 34 2 C32.35 3.98 30.7 5.96 29 8 C25.77026367 8.68115234 25.77026367 8.68115234 22.16796875 8.5859375 C20.87568359 8.56660156 19.58339844 8.54726562 18.25195312 8.52734375 C16.89711097 8.47721901 15.54229326 8.42642942 14.1875 8.375 C12.81320906 8.34488122 11.43885501 8.31750872 10.06445312 8.29296875 C6.70803031 8.22230722 3.35481935 8.12367705 0 8 C0 5.36 0 2.72 0 0 Z " fill="#F2F2F7" transform="translate(261,144)"/>
<path d="M0 0 C5.61 0 11.22 0 17 0 C17 13.2 17 26.4 17 40 C15.35 40 13.7 40 12 40 C12 28.78 12 17.56 12 6 C8.04 6 4.08 6 0 6 C0 4.02 0 2.04 0 0 Z " fill="#D93D38" transform="translate(169,138)"/>
<path d="M0 0 C-1.15173355 2.46800047 -2.04783565 4.04783565 -4 6 C-3.566875 6.67546875 -3.13375 7.3509375 -2.6875 8.046875 C-2.130625 8.93890625 -1.57375 9.8309375 -1 10.75 C-0.443125 11.63171875 0.11375 12.5134375 0.6875 13.421875 C2 16 2 16 2 20 C0.203125 19.84765625 0.203125 19.84765625 -2 19 C-3.703125 16.49609375 -3.703125 16.49609375 -5.25 13.4375 C-5.77078125 12.42558594 -6.2915625 11.41367187 -6.828125 10.37109375 C-7.40820312 9.19740234 -7.40820312 9.19740234 -8 8 C-12.84419638 10.07909954 -17.55639631 12.13315891 -22 15 C-21.67 15.66 -21.34 16.32 -21 17 C-20.0925 16.67 -19.185 16.34 -18.25 16 C-15 15 -15 15 -11 15 C-11 15.66 -11 16.32 -11 17 C-16.75 20 -16.75 20 -19 20 C-18.67 21.65 -18.34 23.3 -18 25 C-17.45730469 24.7834375 -16.91460937 24.566875 -16.35546875 24.34375 C-15.64003906 24.0653125 -14.92460937 23.786875 -14.1875 23.5 C-13.47980469 23.2215625 -12.77210938 22.943125 -12.04296875 22.65625 C-10 22 -10 22 -7 22 C-8 25 -8 25 -9.70703125 26.16796875 C-10.40183594 26.50441406 -11.09664063 26.84085937 -11.8125 27.1875 C-12.49957031 27.53167969 -13.18664062 27.87585938 -13.89453125 28.23046875 C-16 29 -16 29 -20 29 C-21.20284401 26.92426919 -22.38705701 24.84116905 -23.5625 22.75 C-23.90474609 22.16347656 -24.24699219 21.57695312 -24.59960938 20.97265625 C-25.97805924 18.49423124 -27.01219269 16.59337766 -26.953125 13.71875 C-25.7010637 11.46093454 -24.51393798 10.83768529 -22.1875 9.75 C-21.50042969 9.41484375 -20.81335938 9.0796875 -20.10546875 8.734375 C-18 8 -18 8 -14 8 C-14 7.34 -14 6.68 -14 6 C-12.2335343 4.9923048 -10.46166177 3.99408286 -8.6875 3 C-7.20830078 2.1646875 -7.20830078 2.1646875 -5.69921875 1.3125 C-3 0 -3 0 0 0 Z " fill="#3B4193" transform="translate(297,290)"/>
<path d="M0 0 C0.66 0 1.32 0 2 0 C2 21.45 2 42.9 2 65 C-11.86 65 -25.72 65 -40 65 C-40.33 64.34 -40.66 63.68 -41 63 C-27.47 63 -13.94 63 0 63 C0 42.21 0 21.42 0 0 Z " fill="#F6E3E3" transform="translate(184,45)"/>
<path d="M0 0 C15.18 0 30.36 0 46 0 C46 1.32 46 2.64 46 4 C30.82 4 15.64 4 0 4 C0 2.68 0 1.36 0 0 Z " fill="#D93831" transform="translate(261,140)"/>
<path d="M0 0 C1.32 0.33 2.64 0.66 4 1 C4.99 4.96 5.98 8.92 7 13 C8.32 10.03 9.64 7.06 11 4 C11.99 4 12.98 4 14 4 C13.41339714 9.57272714 11.76747856 15.11518069 9 20 C6.86328125 21.296875 6.86328125 21.296875 5 22 C3.094753 16.89665983 1.57410977 12.53657294 2 7 C1.34 7 0.68 7 0 7 C-0.103125 7.70125 -0.20625 8.4025 -0.3125 9.125 C-1.09359003 12.39137647 -2.42058743 15.0471852 -4 18 C-4.66 18 -5.32 18 -6 18 C-5.61330541 11.03949747 -3.36561591 6.0605925 0 0 Z " fill="#3B4193" transform="translate(133,304)"/>
<path d="M0 0 C1.875 1.625 1.875 1.625 3 4 C2.9375 7.125 2.9375 7.125 2 10 C-0.54714915 11.86790938 -1.80869 12 -5 12 C-4.67 14.97 -4.34 17.94 -4 21 C-4.99 21 -5.98 21 -7 21 C-7.86979461 18.77585391 -8.72083184 16.54727408 -9.5625 14.3125 C-9.9327832 13.37374023 -9.9327832 13.37374023 -10.31054688 12.41601562 C-11.74841632 8.5479443 -12.26575069 5.96399767 -11 2 C-3.91764706 -0.63529412 -3.91764706 -0.63529412 0 0 Z " fill="#444997" transform="translate(261,308)"/>
<path d="M0 0 C0.99 0.495 0.99 0.495 2 1 C2 22.12 2 43.24 2 65 C8.93 65 15.86 65 23 65 C23 65.66 23 66.32 23 67 C15.41 67 7.82 67 0 67 C0 44.89 0 22.78 0 0 Z " fill="#F5DEDF" transform="translate(219,44)"/>
<path d="M0 0 C1.65 0.33 3.3 0.66 5 1 C5.67321284 3.24805002 6.33834123 5.49852224 7 7.75 C7.556875 9.62945312 7.556875 9.62945312 8.125 11.546875 C9 15 9 15 9 19 C7.0625 18.6875 7.0625 18.6875 5 18 C4.67 17.01 4.34 16.02 4 15 C1.36 14.67 -1.28 14.34 -4 14 C-4.33 15.32 -4.66 16.64 -5 18 C-5.99 18 -6.98 18 -8 18 C-7.47729735 13.09690194 -5.9987369 9.81611493 -3.4375 5.625 C-2.79683594 4.56539063 -2.15617188 3.50578125 -1.49609375 2.4140625 C-1.00238281 1.61742187 -0.50867188 0.82078125 0 0 Z " fill="#3E4494" transform="translate(177,316)"/>
<path d="M0 0 C1.79244141 0.01740234 1.79244141 0.01740234 3.62109375 0.03515625 C5.41740234 0.04869141 5.41740234 0.04869141 7.25 0.0625 C8.17683594 0.07410156 9.10367188 0.08570313 10.05859375 0.09765625 C9.72859375 1.08765625 9.39859375 2.07765625 9.05859375 3.09765625 C6.08859375 3.09765625 3.11859375 3.09765625 0.05859375 3.09765625 C0.05859375 4.41765625 0.05859375 5.73765625 0.05859375 7.09765625 C3.02859375 7.09765625 5.99859375 7.09765625 9.05859375 7.09765625 C9.05859375 8.08765625 9.05859375 9.07765625 9.05859375 10.09765625 C6.08859375 10.09765625 3.11859375 10.09765625 0.05859375 10.09765625 C0.05859375 11.74765625 0.05859375 13.39765625 0.05859375 15.09765625 C3.35859375 15.09765625 6.65859375 15.09765625 10.05859375 15.09765625 C10.05859375 16.41765625 10.05859375 17.73765625 10.05859375 19.09765625 C7.91282738 19.12451563 5.7669673 19.14398713 3.62109375 19.16015625 C2.42613281 19.17175781 1.23117188 19.18335938 0 19.1953125 C-2.94140625 19.09765625 -2.94140625 19.09765625 -3.94140625 18.09765625 C-4.041276 15.25430577 -4.08018506 12.44068462 -4.06640625 9.59765625 C-4.07027344 8.79972656 -4.07414063 8.00179688 -4.078125 7.1796875 C-4.06616458 0.13499882 -4.06616458 0.13499882 0 0 Z " fill="#494F9A" transform="translate(206.94140625,316.90234375)"/>
<path d="M0 0 C4.2078288 0.60409423 7.34247995 3.0084586 10.75 5.375 C11.35199219 5.77460938 11.95398438 6.17421875 12.57421875 6.5859375 C14.1082465 7.64340787 15.56186569 8.8154096 17 10 C17 10.99 17 11.98 17 13 C15.9275 12.773125 14.855 12.54625 13.75 12.3125 C10.1403481 11.7078748 10.1403481 11.7078748 7.625 13.0625 C5.48568235 15.6132249 5.2904338 17.73261975 5 21 C4.01 20.67 3.02 20.34 2 20 C1.46706163 17.60629375 0.9484183 15.21091562 0.4375 12.8125 C0.28603516 12.13896484 0.13457031 11.46542969 -0.02148438 10.77148438 C-0.8403763 6.86746475 -1.1282845 3.84812264 0 0 Z " fill="#3C4293" transform="translate(301,285)"/>
<path d="M0 0 C0.33 1.32 0.66 2.64 1 4 C-1.64 4 -4.28 4 -7 4 C-7 5.32 -7 6.64 -7 8 C-6.154375 7.67 -5.30875 7.34 -4.4375 7 C-0.72675559 5.92051072 2.15675902 5.6304576 6 6 C8 9 8 9 7.8125 12 C6.64040235 16.32774518 6.64040235 16.32774518 4 18 C0.3125 18.6875 0.3125 18.6875 -3 19 C-3.66 17.68 -4.32 16.36 -5 15 C-2.69 15 -0.38 15 2 15 C2.66 13.68 3.32 12.36 4 11 C1.07829434 9.65965929 1.07829434 9.65965929 -1.375 11 C-4.45116789 12.17187348 -5.90361244 12.0042338 -9 11 C-9.66 10.34 -10.32 9.68 -11 9 C-10.83464093 5.85817768 -10.17165881 4.23523615 -8.3125 1.6875 C-5.37575119 -0.45553291 -3.55482252 -0.32316568 0 0 Z " fill="#3E4494" transform="translate(322,275)"/>
<path d="M0 0 C4.7990969 0.78741659 7.87914943 2.49516926 12 5 C12 5.66 12 6.32 12 7 C8.62294375 6.46274105 5.303314 5.88935377 2 5 C2 5.99 2 6.98 2 8 C3.98 8.99 5.96 9.98 8 11 C8 11.99 8 12.98 8 14 C4.7 13.01 1.4 12.02 -2 11 C-2.33 12.65 -2.66 14.3 -3 16 C-1.88625 16.268125 -0.7725 16.53625 0.375 16.8125 C4 18 4 18 6 21 C3 22 3 22 0.51953125 21.00390625 C-0.37378906 20.52824219 -1.26710938 20.05257813 -2.1875 19.5625 C-3.08855469 19.08941406 -3.98960938 18.61632812 -4.91796875 18.12890625 C-5.60503906 17.75636719 -6.29210937 17.38382812 -7 17 C-6.46105575 12.40191871 -5.23428472 9.13215631 -2.9375 5.125 C-2.38964844 4.15820312 -1.84179688 3.19140625 -1.27734375 2.1953125 C-0.85582031 1.47085937 -0.43429688 0.74640625 0 0 Z " fill="#3C4293" transform="translate(118,297)"/>
<path d="M0 0 C3.37375813 0.18402317 6.0239814 0.40179505 8.9375 2.1875 C10.47273259 4.80642619 10.1980568 7.02914805 10 10 C9.01 10 8.02 10 7 10 C6.7525 9.030625 6.505 8.06125 6.25 7.0625 C5.8375 6.051875 5.425 5.04125 5 4 C2.97445397 3.26404798 2.97445397 3.26404798 1 3 C1.55880859 3.88751953 1.55880859 3.88751953 2.12890625 4.79296875 C2.60199219 5.58316406 3.07507813 6.37335938 3.5625 7.1875 C4.03816406 7.96480469 4.51382813 8.74210937 5.00390625 9.54296875 C6.21450028 12.52910069 6.01172 13.97500805 5 17 C4.34 17.66 3.68 18.32 3 19 C-0.85849961 18.85709261 -3.27496516 18.52053783 -6.4375 16.25 C-8.28286337 13.59267675 -8.35205968 12.1685371 -8 9 C-6.68 8.67 -5.36 8.34 -4 8 C-3.34 10.31 -2.68 12.62 -2 15 C-1.01 15 -0.02 15 1 15 C0.45276317 11.62537285 -0.0549 9.91765 -2 7 C-2.25 4.4375 -2.25 4.4375 -2 2 C-1.34 1.34 -0.68 0.68 0 0 Z " fill="#393F92" transform="translate(82,275)"/>
<path d="M0 0 C4.68901357 2.34450679 6.28199718 4.15908551 8 9 C4.85418577 9.02888514 1.70840531 9.04675923 -1.4375 9.0625 C-2.78424805 9.07506836 -2.78424805 9.07506836 -4.15820312 9.08789062 C-5.43920898 9.09272461 -5.43920898 9.09272461 -6.74609375 9.09765625 C-7.53685303 9.10289307 -8.3276123 9.10812988 -9.14233398 9.11352539 C-11 9 -11 9 -12 8 C-12.3125 5.625 -12.3125 5.625 -12 3 C-8.871751 -0.77996755 -4.56630769 -0.79032248 0 0 Z " fill="#F9F9FB" transform="translate(148,95)"/>
<path d="M0 0 C0.33 0 0.66 0 1 0 C1.495 6.93 1.495 6.93 2 14 C-4.6 14 -11.2 14 -18 14 C-18.33 11.69 -18.66 9.38 -19 7 C-12.73 7 -6.46 7 0 7 C0 4.69 0 2.38 0 0 Z " fill="#D55454" transform="translate(116,97)"/>
<path d="M0 0 C2.9375 1.625 2.9375 1.625 5 4 C5.3125 7.25 5.3125 7.25 5 10 C4.01 10 3.02 10 2 10 C1.34 8.02 0.68 6.04 0 4 C-3.04386724 3.91773332 -5.07175348 4.02391783 -8 5 C-8.185625 6.299375 -8.37125 7.59875 -8.5625 8.9375 C-8.66691406 9.66839844 -8.77132812 10.39929688 -8.87890625 11.15234375 C-8.91886719 11.76207031 -8.95882812 12.37179687 -9 13 C-7.99163938 14.23267348 -7.99163938 14.23267348 -5.93359375 14.09765625 C-5.10988281 14.08605469 -4.28617188 14.07445312 -3.4375 14.0625 C-2.61121094 14.05347656 -1.78492187 14.04445313 -0.93359375 14.03515625 C-0.29550781 14.02355469 0.34257813 14.01195312 1 14 C0.67 15.32 0.34 16.64 0 18 C-4.47904428 19.16455151 -6.33381192 19.37548783 -10.4375 17.0625 C-13.2916362 13.65145918 -13.7933656 12.22663504 -13.46875 7.93359375 C-12.73623313 4.91196165 -11.19716904 3.13254642 -9 1 C-5.89951072 -0.55024464 -3.42105782 -0.28992015 0 0 Z " fill="#3B4193" transform="translate(102,286)"/>
<path d="M0 0 C15.18 0 30.36 0 46 0 C46 1.65 46 3.3 46 5 C45.505 4.01 45.505 4.01 45 3 C30.15 3 15.3 3 0 3 C0 2.01 0 1.02 0 0 Z " fill="#ECBCBE" transform="translate(261,108)"/>
<path d="M0 0 C0.33 0 0.66 0 1 0 C1 18.81 1 37.62 1 57 C-8 55 -8 55 -11 53 C-10 51 -10 51 -7.125 49.625 C-3.91592409 47.95628053 -2.84359553 47.01692711 -1 44 C-0.53538254 41.82941758 -0.53538254 41.82941758 -0.56762695 39.50683594 C-0.54783279 38.62622498 -0.52803864 37.74561401 -0.50764465 36.83831787 C-0.50125473 35.89651672 -0.49486481 34.95471558 -0.48828125 33.984375 C-0.47033005 33.01340881 -0.45237885 32.04244263 -0.43388367 31.04205322 C-0.37975727 27.94474615 -0.34587717 24.8475934 -0.3125 21.75 C-0.27932902 19.64841602 -0.24483957 17.5468524 -0.20898438 15.4453125 C-0.12402927 10.29698629 -0.05722892 5.14870605 0 0 Z " fill="#E0E1EC" transform="translate(244,191)"/>
<path d="M0 0 C7.59 0 15.18 0 23 0 C23 0.66 23 1.32 23 2 C16.07 2 9.14 2 2 2 C2 14.54 2 27.08 2 40 C1.34 40 0.68 40 0 40 C0 26.8 0 13.6 0 0 Z " fill="#F9EFEF" transform="translate(219,138)"/>
<path d="M0 0 C5.61 0 11.22 0 17 0 C17 13.2 17 26.4 17 40 C16.34 40 15.68 40 15 40 C15 27.46 15 14.92 15 2 C10.05 2 5.1 2 0 2 C0 1.34 0 0.68 0 0 Z " fill="#FAF2F2" transform="translate(169,138)"/>
<path d="M0 0 C-0.33 0.99 -0.66 1.98 -1 3 C-2.65 3 -4.3 3 -6 3 C-5.855625 3.56847656 -5.71125 4.13695312 -5.5625 4.72265625 C-4.38454495 9.62262205 -3.78572473 13.9645312 -4 19 C-5.32 19 -6.64 19 -8 19 C-8.84681133 13.91913204 -9.09038099 9.15171623 -9 4 C-11.31 4 -13.62 4 -16 4 C-15.67 3.01 -15.34 2.02 -15 1 C-9.94997778 -0.03590199 -5.12583611 -0.10251672 0 0 Z " fill="#3E4494" transform="translate(234,315)"/>
<path d="M0 0 C5.53657294 -0.42589023 9.89665983 1.094753 15 3 C15 3.99 15 4.98 15 6 C12.03 5.505 12.03 5.505 9 5 C8.79503906 5.91523438 8.59007812 6.83046875 8.37890625 7.7734375 C8.10949219 8.96195312 7.84007812 10.15046875 7.5625 11.375 C7.29566406 12.55835938 7.02882812 13.74171875 6.75390625 14.9609375 C6 18 6 18 5 20 C4.01 19.67 3.02 19.34 2 19 C2.69165788 13.58201328 3.75799248 8.3177215 5 3 C3.35 2.67 1.7 2.34 0 2 C0 1.34 0 0.68 0 0 Z " fill="#3D4394" transform="translate(148,310)"/>
<path d="M0 0 C1.65 0 3.3 0 5 0 C5 7.26 5 14.52 5 22 C2.525 21.01 2.525 21.01 0 20 C0 13.4 0 6.8 0 0 Z " fill="#E58886" transform="translate(181,257)"/>
<path d="M0 0 C1.65 0 3.3 0 5 0 C5.14515677 3.10367497 5.23400853 6.20648027 5.3125 9.3125 C5.35439453 10.19357422 5.39628906 11.07464844 5.43945312 11.98242188 C5.45556641 12.82998047 5.47167969 13.67753906 5.48828125 14.55078125 C5.51446533 15.33106689 5.54064941 16.11135254 5.56762695 16.9152832 C5 19 5 19 0 22 C0 14.74 0 7.48 0 0 Z " fill="#E68B89" transform="translate(219,257)"/>
<path d="M0 0 C0.99 0.33 1.98 0.66 3 1 C1.49233686 6.72911994 -1.21648164 12.41995145 -5 17 C-6.32 17 -7.64 17 -9 17 C-7.68925635 12.53817564 -5.92933989 9.00381243 -3.375 5.125 C-2.74335937 4.15820312 -2.11171875 3.19140625 -1.4609375 2.1953125 C-0.73777344 1.10863281 -0.73777344 1.10863281 0 0 Z " fill="#3F4595" transform="translate(112,293)"/>
<path d="M0 0 C0.99 0 1.98 0 3 0 C2.88485851 2.04224637 2.75742674 4.08380159 2.625 6.125 C2.55539063 7.26195312 2.48578125 8.39890625 2.4140625 9.5703125 C2.00556124 12.95393616 1.19032431 15.81612441 0 19 C-0.99 18.67 -1.98 18.34 -3 18 C-2.57045059 11.74892565 -1.98598493 5.95795479 0 0 Z " fill="#3F4595" transform="translate(165,314)"/>
<path d="M0 0 C0.99 0.33 1.98 0.66 3 1 C3.12375 2.134375 3.2475 3.26875 3.375 4.4375 C3.684375 6.2009375 3.684375 6.2009375 4 8 C4.66 8.33 5.32 8.66 6 9 C6.4140625 11.28515625 6.4140625 11.28515625 6.625 14.0625 C6.69976562 14.98160156 6.77453125 15.90070313 6.8515625 16.84765625 C6.90054687 17.55792969 6.94953125 18.26820313 7 19 C6.01 19 5.02 19 4 19 C3.13020539 16.77585391 2.27916816 14.54727408 1.4375 12.3125 C1.0672168 11.37374023 1.0672168 11.37374023 0.68945312 10.41601562 C-0.74841632 6.5479443 -1.26575069 3.96399767 0 0 Z " fill="#394092" transform="translate(250,310)"/>
<path d="M0 0 C0.99 0 1.98 0 3 0 C4.00904375 2.2463236 5.0073602 4.49643937 6 6.75 C6.42925781 7.70132812 6.42925781 7.70132812 6.8671875 8.671875 C8.36006702 12.08417104 9 14.20781917 9 18 C8.01 18 7.02 18 6 18 C4.99095625 15.7536764 3.9926398 13.50356063 3 11.25 C2.71382813 10.61578125 2.42765625 9.9815625 2.1328125 9.328125 C0.63993298 5.91582896 0 3.79218083 0 0 Z " fill="#3C4293" transform="translate(264,305)"/>
<path d="M0 0 C3.1875 1.5 3.1875 1.5 5 3 C5 3.33 5 3.66 5 4 C2.41577541 3.88581333 -0.16679513 3.75907638 -2.75 3.625 C-3.47960937 3.5940625 -4.20921875 3.563125 -4.9609375 3.53125 C-8.73942656 3.3251506 -11.77946668 3.08487157 -15 1 C-10.14821138 -1.95673706 -5.38879923 -0.99644956 0 0 Z " fill="#E2E3EE" transform="translate(231,248)"/>
<path d="M0 0 C1.58167969 0.13148438 1.58167969 0.13148438 3.1953125 0.265625 C5.875 0.75 5.875 0.75 7.875 2.75 C5.21581834 3.63639389 3.39435359 3.92989025 0.64453125 4.06640625 C-0.15791016 4.10830078 -0.96035156 4.15019531 -1.78710938 4.19335938 C-2.62048828 4.23267578 -3.45386719 4.27199219 -4.3125 4.3125 C-5.15748047 4.35568359 -6.00246094 4.39886719 -6.87304688 4.44335938 C-8.95684433 4.54931518 -11.04090103 4.6501502 -13.125 4.75 C-8.87302696 0.38278517 -6.16855694 -0.57593406 0 0 Z " fill="#E4E4EF" transform="translate(182.125,247.25)"/>
<path d="M0 0 C6.27 0 12.54 0 19 0 C19.33 0.99 19.66 1.98 20 3 C13.4 3 6.8 3 0 3 C0 2.01 0 1.02 0 0 Z " fill="#EDBCBD" transform="translate(98,108)"/>
<path d="M0 0 C0.33 0 0.66 0 1 0 C1.28875 0.94875 1.5775 1.8975 1.875 2.875 C3.1046221 6.29061694 3.94787154 7.44299081 7.125 9.125 C8.053125 9.558125 8.053125 9.558125 9 10 C8.67 10.66 8.34 11.32 8 12 C5.35139573 12.59355614 2.70802678 12.74209269 0 13 C0 8.71 0 4.42 0 0 Z " fill="#E6E7F0" transform="translate(208,233)"/>
<path d="M0 0 C0.33 0 0.66 0 1 0 C1.33951619 1.56116819 1.67132544 3.12401338 2 4.6875 C2.185625 5.55761719 2.37125 6.42773438 2.5625 7.32421875 C2.98972047 9.93712964 3.07616201 12.35813038 3 15 C1.35 15 -0.3 15 -2 15 C-1.03644647 4.44191344 -1.03644647 4.44191344 0 0 Z " fill="#E6E6F0" transform="translate(180,207)"/>
<path d="M0 0 C1.98 0 3.96 0 6 0 C6.33 1.32 6.66 2.64 7 4 C4 6 4 6 1 6 C0.67 4.02 0.34 2.04 0 0 Z " fill="#F0F1F6" transform="translate(253,312)"/>
<path d="M0 0 C0.66 0.33 1.32 0.66 2 1 C-1.42388092 4.82669043 -4.00724943 6.72278474 -9 8 C-8.75 6.125 -8.75 6.125 -8 4 C-5.06004981 1.97244814 -3.72295997 2 0 2 C0 1.34 0 0.68 0 0 Z " fill="#454A98" transform="translate(283,296)"/>
<path d="M0 0 C4.875 0.875 4.875 0.875 6 2 C6.04063832 3.66617115 6.042721 5.33388095 6 7 C4.125 6.6875 4.125 6.6875 2 6 C0 3 0 3 0 0 Z " fill="#EDEDF4" transform="translate(83,278)"/>
<path d="M0 0 C0 0.66 0 1.32 0 2 C-5.75 5 -5.75 5 -8 5 C-8.33 5.66 -8.66 6.32 -9 7 C-8.75 4.625 -8.75 4.625 -8 2 C-5.10189884 -0.09862498 -3.71621139 0 0 0 Z " fill="#414796" transform="translate(286,305)"/>
<path d="M0 0 C1.98 0 3.96 0 6 0 C6.33 1.32 6.66 2.64 7 4 C4.69 4 2.38 4 0 4 C0 2.68 0 1.36 0 0 Z " fill="#454A98" transform="translate(316,275)"/>
<path d="M0 0 C-1.1446875 0.8971875 -1.1446875 0.8971875 -2.3125 1.8125 C-4.91335259 3.84004112 -4.91335259 3.84004112 -6.6875 5.75 C-8 7 -8 7 -10 7 C-10 4 -10 4 -7.8125 1.8125 C-4.80799236 -0.12373826 -3.4826218 -0.39801392 0 0 Z " fill="#D6D6E7" transform="translate(346,266)"/>
<path d="M0 0 C2 2 2 2 2.125 4.625 C2.08375 5.40875 2.0425 6.1925 2 7 C0.35 7 -1.3 7 -3 7 C-2.01 4.69 -1.02 2.38 0 0 Z " fill="#ECEDF4" transform="translate(178,320)"/>
<path d="M0 0 C1.65 0.99 3.3 1.98 5 3 C4.67 3.99 4.34 4.98 4 6 C3.01 6.33 2.02 6.66 1 7 C0.67 4.69 0.34 2.38 0 0 Z " fill="#EEEFF5" transform="translate(304,290)"/>
<path d="M0 0 C0.33 0.66 0.66 1.32 1 2 C1.66 2.33 2.32 2.66 3 3 C1.37660195 4.70884005 -0.29319053 6.37446717 -2 8 C-2.66 8 -3.32 8 -4 8 C-2.66666667 5.33333333 -1.33333333 2.66666667 0 0 Z " fill="#D7D8E7" transform="translate(336,259)"/>
</svg>
